<svg width="154" height="145" viewBox="0 0 154 145" fill="none" xmlns="http://www.w3.org/2000/svg">
<path fill-rule="evenodd" clip-rule="evenodd" d="M30.7927 145C43.4859 145 54.3852 126.918 59.0974 101.097C61.4863 123.095 66.5452 138.268 72.3998 138.268C78.5937 138.268 83.8969 121.286 86.0902 97.2065C88.0534 114.934 92.0635 127.078 96.6914 127.078C103.256 127.078 108.577 102.644 108.577 72.5027C108.577 42.3614 103.256 17.9271 96.6914 17.9271C92.064 17.9271 88.0542 30.0695 86.0908 47.7938C83.8978 23.7109 78.5942 6.72619 72.3998 6.72619C66.5449 6.72619 61.4857 21.9007 59.097 43.9007C54.3846 18.0812 43.4855 0 30.7927 0C13.7864 0 0 32.4594 0 72.5C0 112.541 13.7864 145 30.7927 145ZM123.696 113.39C128.47 113.39 132.34 95.0835 132.34 72.5013C132.34 49.9192 128.47 31.6127 123.696 31.6127C118.922 31.6127 115.051 49.9192 115.051 72.5013C115.051 95.0835 118.922 113.39 123.696 113.39ZM153.779 72.4971C153.779 83.7882 150.914 92.9414 147.379 92.9414C143.844 92.9414 140.978 83.7882 140.978 72.4971C140.978 61.2061 143.844 52.0528 147.379 52.0528C150.914 52.0528 153.779 61.2061 153.779 72.4971Z" fill="#EE1171"/>
</svg>
