<svg width="28" height="28" viewBox="0 0 28 28" fill="none" xmlns="http://www.w3.org/2000/svg">
<path d="M12.0546 22C12.4539 22 12.7696 21.8332 12.9925 21.5084L21.7678 8.44821C21.935 8.19368 22 8.00059 22 7.79872C22 7.31597 21.6657 7 21.155 7C20.7835 7 20.5792 7.1141 20.3564 7.44763L12.0174 20.0076L7.69007 14.6536C7.45792 14.3464 7.22577 14.2235 6.89147 14.2235C6.36216 14.2235 6 14.5658 6 15.0485C6 15.2505 6.09286 15.4787 6.2693 15.6893L11.0888 21.4909C11.3674 21.8332 11.6553 22 12.0546 22Z" fill="#EE1171"/>
</svg>
