<svg width="28" height="28" viewBox="0 0 28 28" fill="none" xmlns="http://www.w3.org/2000/svg">
<g clip-path="url(#clip0_1009_6851)">
<path d="M6.75231 25H21.2477C23.7572 25 25 23.7571 25 21.2954V6.7045C25 4.2428 23.7572 3 21.2477 3H6.75231C4.25476 3 3 4.23085 3 6.7045V21.2954C3 23.7691 4.25476 25 6.75231 25ZM6.77621 23.076C5.58121 23.076 4.92396 22.4426 4.92396 21.1999V6.8001C4.92396 5.5573 5.58121 4.92395 6.77621 4.92395H21.2238C22.4068 4.92395 23.0761 5.5573 23.0761 6.8001V21.1999C23.0761 22.4426 22.4068 23.076 21.2238 23.076H6.77621Z" fill="#4B4D4F"/>
<path d="M9.94787 19C10.2204 19 10.4573 18.8933 10.6351 18.7038L13.9882 15.3389L17.3649 18.7038C17.5427 18.8815 17.7677 19 18.0403 19C18.5734 19 18.9882 18.5734 18.9882 18.0403C18.9882 17.7677 18.8933 17.5545 18.7038 17.3649L15.3389 14L18.7157 10.6114C18.9171 10.41 19 10.2085 19 9.94787C19 9.42654 18.5853 9 18.0521 9C17.8033 9 17.6019 9.09478 17.4005 9.2962L13.9882 12.673L10.6114 9.30805C10.4336 9.11848 10.2204 9.02369 9.94787 9.02369C9.42654 9.02369 9 9.43839 9 9.95971C9 10.2204 9.10663 10.4455 9.28435 10.6232L12.6493 14L9.28435 17.3767C9.10663 17.5545 9 17.7797 9 18.0403C9 18.5734 9.42654 19 9.94787 19Z" fill="#4B4D4F"/>
</g>
<defs>
<clipPath id="clip0_1009_6851">
<rect width="22" height="22" fill="white" transform="translate(3 3)"/>
</clipPath>
</defs>
</svg>
